<svg xmlns="http://www.w3.org/2000/svg" width="16" height="16" viewBox="0 0 16 16"><rect width="100%" height="100%" fill="#000000"/><path fill="#FFFFFF" d="M5.195 9.495q.23 0 .41-.08.19-.08.32-.22.12-.14.19-.34t.07-.45v-2.6h.8v2.6q0 .39-.12.72-.13.32-.36.56t-.56.37q-.34.14-.75.14-.42 0-.76-.14-.33-.13-.56-.37t-.36-.56q-.12-.33-.12-.72v-2.6h.8v2.6q0 .25.07.45t.2.34q.12.14.31.22.18.08.42.08m6.8-3.69h.61v4.34h-.71v-2.8q0-.17.02-.37l-1.31 2.47q-.1.17-.29.17h-.11q-.2 0-.29-.17l-1.32-2.47q0 .09.01.19t.01.18v2.8h-.71v-4.34h.6q.06 0 .1.01.04 0 .07.01t.06.04q.02.03.04.07l1.3 2.41.1.2q.04.1.08.21.05-.11.09-.22l.1-.2 1.28-2.4q.02-.04.05-.07t.06-.04.07-.01q.04-.01.09-.01"/></svg>